<svg xmlns="http://www.w3.org/2000/svg" version="1.1" width="600px" height="600px" viewBox="0 0 200 200" style="overflow:hidden!important;"><g id="svga-group-wrapper"><g id="svga-group-backs-single"></g><g id="svga-group-humanwrap-move" transform="matrix(1,0,0,1,0,0)"><g id="svga-group-humanwrap"><g id="svga-group-hair-back-move" transform="matrix(1,-2.856368900253737e-18,2.856368900253737e-18,1,0,0)"><g id="svga-group-hair-back"></g></g><g id="svga-group-humanbody-back"><path id="SvgjsPath18403" d="m170 180.3-27.3-6.9-18-9.9-1.5-28.2H76.8l-1.5 28.2-18 9.9-27.3 6.9-9.1 19.7-3 20h164.2l-3-20z" fill="#8c5537" stroke-width="none" opacity="1" stroke="none"></path><path id="SvgjsPath18404" d="m76.8 135.3-1.5 28.2-18 9.9-27.3 6.9-9.1 19.7-3 20h14.6v-20l2.7-17.7 23.8-6.4 24.7-8.3 3.5-32.3z" fill="#6d3415" stroke-width="none" opacity="1" stroke="none"></path></g><g id="svga-group-chinshadow-single"><path id="SvgjsPath18672" d="m122.4 140.2 1-1-.2-3.9H76.8l-.5 9.2 13.8 13.8h14.3z" fill="#5e2709" stroke-width="none" opacity="1"></path></g><g id="svga-group-humanbody-front"><path id="SvgjsPath18405" d="m92.8 168.3 2 7.9 6.9 4.6s-8.5-3-8.7-3.6c-.2-.6-.2-8.9-.2-8.9z" fill="#6d3415" stroke-width="none" opacity="1" stroke="none"></path></g><g id="svga-group-clothes-single"><path id="SvgjsPath18282" d="m179.6 200-8.5-20-28.8-7.4-9.5-4.8-.1-1.5-8.3-8.8.2 3.5-1.1 12.2-7.6 7.9-9.1 1.9-2.1 5.7-2.1 2.9-7.5-9.3-10.7-1.2-5.8-7.3-3.2-13.1.2-3.2-8.3 8.8-.1 1.5-9.5 4.8L29 180l-8.6 20-3.4 20h165.9z" fill="#3e8b94" stroke-width="none" opacity="1"></path><path id="SvgjsPath18283" d="m29.9 200.7 3.6-10.8 24.9-9.6 7.2-3.2.3-2 11.5-5.7h.1l-2.1-8.7.2-3.2-8.3 8.8-.1 1.5-9.5 4.8L29 180l-8.6 20-3.4 20h12.6z" fill="#2a7b85" stroke-width="none" opacity="1"></path><path id="SvgjsPath18284" d="m132.8 167.8 2.7 19.2 1.2 8.7L125 188l-5.2-5.3-4.2-1.6 4 3.4-6.4 2.6-7.9 1.5 7-.6-8.7 11.8V220h1.7l-.8-19.8 7.8-12 1-.1 7.1-2.8 4.2 4.5 13.3 8.1-1.6-12.4-3.5-17.7zm-33.1 29.7 2.9-5.9-3.5 5-6.1-8.7-12.5-3.4 3.8-3.3-4.2 1.6L75 188l-11.7 7.7 1.2-8.7 2.7-19.2-3.4 17.7-1.6 12.4 13.3-8.1 4.6-4.9.5-.5 11.8 4.3 6.1 8.6-1.2.7 1.1 21.9h1.5l-1.3-21 1.1-1.4zm10.5-12.8-1.5-.8-.9 1.4 1.4 1 1-1.6zm-9.3 13.3 1.4 1 1-1.7-1.5-.8-.9 1.5zm-.8 18.6 1.4 1 1-1.7-1.5-.8-.9 1.5zm-69.7-35.3 6.8 21 1.2 17.7h1.4l-1.1-17.8-8.3-20.9zm130.5 19.3-1.2 19.4h1.9l1-19.2 7-18.2-8.7 18z" fill="#1a6c75" stroke-width="none" opacity="1"></path><path id="SvgjsPath18285" d="m127 162.5-1.1-1.4v13l-5.3 8 4.8 4.6s2.3-11.1 2.3-11.8c0-.7-.7-12.4-.7-12.4zm-53.2.1.5-2.3-1.8 2.5 1.2 13.4 2.1 9.5 3.8-4.3-3.9-6.1-1.9-12.7z" fill="#559ba3" stroke-width="none" opacity="1"></path></g><g id="svga-group-head" transform="matrix(1,-2.856368900253737e-18,2.856368900253737e-18,1,0,0)"><g id="svga-group-ears-left-move" transform="matrix(1,0,0,1,0,0)"><g id="svga-group-ears-left" transform="matrix(1.0500001,0,0,1.0500001,-2.8675059448087765,-5.230010383705917)"><path id="SvgjsPath18776" d="M60.9 93s-5.5-3-7.7-3.9c0 0-3.9 5.4-5.1 7.2 0 0 3.1 14.7 3.9 17.3l5 6.5 5.4-1.7 4.2-14.2L60.9 93z" fill="#8c5537" stroke-width="none" opacity="1"></path><path id="SvgjsPath18777" d="M58.8 104.7c-.2-.4-6-10-6-10l-2.3 7.9 2.6-2.4 1.6 2.9s-.3 5-.2 5.5c0 .5 2.4 4.3 2.4 4.3l1.9-8.2z" fill="#6d3415" stroke-width="none" opacity="1"></path><path id="SvgjsPath18778" d="m58.4 98-5.2-8.9c2.2.9 7.7 1.8 7.7 1.8l5.7 13.3-4.2 14.2-5.4 1.7 3.6-3.4L58.4 98z" fill="#7d4425" stroke-width="none" opacity="1"></path></g></g><g id="svga-group-ears-right-move" transform="matrix(1,0,0,1,0,0)"><g id="svga-group-ears-right" transform="matrix(1.0500001,0,0,1.0500001,-7.132514722764597,-5.230010383705917)"><path id="SvgjsPath18779" d="M139.1 93s5.5-3 7.7-3.9c0 0 3.9 5.4 5.1 7.2 0 0-3.1 14.7-3.9 17.3l-5 6.5-5.4-1.7-4.2-14.2 5.7-11.2z" fill="#8c5537" stroke-width="none" opacity="1"></path><path id="SvgjsPath18780" d="M141.2 104.7c.2-.4 6-10 6-10l2.3 7.9-2.6-2.4-1.6 2.9s.3 5 .2 5.5c0 .5-2.4 4.3-2.4 4.3l-1.9-8.2z" fill="#6d3415" stroke-width="none" opacity="1"></path><path id="SvgjsPath18781" d="m141.6 98 5.2-8.9c-2.2.9-7.7 1.8-7.7 1.8l-5.7 13.3 4.2 14.2 5.4 1.7-3.6-3.4 2.2-18.7z" fill="#7d4425" stroke-width="none" opacity="1"></path></g></g><g id="svga-group-faceshape-wrap"><g id="svga-group-faceshape-single"><path id="SvgjsPath18662" d="M138.1 60c-6.9-11.6-19.7-19.5-19.7-19.5-7.2-1.5-18.4-2.3-18.4-2.3s-11.1.8-18.4 2.3c0 0-12.8 7.9-19.7 19.5 0 0-5.1 14.5-5.3 24.8l1.2 18.7 9.1 23.5 8 7.6 18 18.1h14.2l18-18.1 8-7.6 9.1-23.5 1.2-18.7c-.2-10.3-5.3-24.8-5.3-24.8z" fill="#8c5537" stroke-width="none" opacity="1"></path><path id="SvgjsPath18663" d="m93.2 150.3-24.4-24.7-7.7-23.7.3-18 4.3-22.1 17.4-18 16.7-4 18.6.7c-7.2-1.5-18.4-2.3-18.4-2.3s-11.1.8-18.4 2.3c0 0-12.8 7.9-19.7 19.5 0 0-5.1 14.5-5.3 24.8l1.2 18.7 9.1 23.5 8 7.6 18 18.1h14.2l18-18.1 8-7.6-27 23.4H93.2v-.1z" fill="#6d3415" stroke-width="none" opacity="1"></path></g></g><g id="svga-group-mouth-single-move" transform="matrix(1,0,0,1,-0.5,0)"><g id="svga-group-mouth-single" transform="matrix(0.8499994000000002,0,0,0.8499994000000002,15.065311039201333,19.88033007031858)"><path id="SvgjsPath18497" d="m91.05 134.5 3.1 2.2 5.6-.2 6.6.6 2.7-2-2.9 1-6.5-.5-5.5.2z" fill="#6d3415" stroke-width="none" opacity="1" transform="translate(0 2)" stroke="none"></path><path id="SvgjsPath18498" d="m89.17 128.58-1.77 2.59 7.88-2.14 2.49 1.51 3.83.27 2.37-1.45 9.7 2.06-1.77-1.92-8.85-5.39-3.26.99-2.89-1.13z" fill="#803d33" stroke-width="none" opacity="1" transform="translate(0 2)" stroke="none"></path><path id="SvgjsPath18499" d="m85.3 129.9 2.3 1.9 7.5-2.4 2.8 1.6 3.7.1 2.6-1.5 9.5 2.3 1.87-1.35-2.07.45-9.6-2.7-2.5 1.9-3.5-.1-2.7-2-7.8 2.7z" fill="#712c22" stroke-width="none" opacity="1" transform="translate(0 2)" stroke="none"></path></g></g><g id="svga-group-eyes-left-move" transform="matrix(1,0,0,1,1,1)"><g id="svga-group-eyes-left" transform="matrix(1.0000001,0,0,1.0000001,-0.000008059999856868671,-0.000009525000393750815)"><g id="svga-group-eyesback-left"><path id="SvgjsPath18341" d="M91.2 95.7 86 91.1l-9 .1-7 3.8s5.8 4.3 7.2 4.9l8.8-.4 5.2-3.8z" fill="#ffffff" stroke-width="none" opacity="1"></path></g><g id="svga-group-eyesiriswrapper-left" transform="matrix(1,0,0,1,0,0)"><g id="svga-group-eyesiriscontrol-left" transform="matrix(1,0,0,1,0,0)"><g id="svga-group-eyesiris-left"><path id="SvgjsPath18420" d="m79.4 99.5-2.6-1.9-1-3 1-3.1 2.6-1.9h3.2l2.6 1.9 1 3.1-1 3-2.6 1.9z" fill="#2a2121" stroke-width="none" opacity="1"></path><path id="SvgjsPath18421" d="m82.5 89.8 2.5 1.8.9 2.9-.9 3-2.5 1.8h-3.1L77 97.5l-.9-2.9.9-2.9 2.5-1.8h3m.2-.6h-3.4l-2.8 2-1.1 3.2 1.1 3.2 2.8 2h3.4l2.8-2 1.1-3.2-1.1-3.2-2.8-2z" fill="#0b0707" stroke-width="none" opacity="1"></path><path id="SvgjsPath18422" d="M81.8 91.9h-1.6l-1.4 1-.6 1.7.6 1.6 1.4 1h1.6l1.4-1 .6-1.6-.6-1.7z" fill="#000000" stroke-width="none" opacity="1"></path><path id="SvgjsPath18423" d="m82.4 99.2.2-.8.9.2.1-.9.8.2s-.2-.8-.1-.8.8.1.8.1l-.5-.8.8-.2-.4-.9.9-.3-.7-.5.5-.7-.7-.3.3-.9-.6-.2.2-.8h-.6l-.2-.6h-.4l-.1-.6 1.3.7.8 1.9.5 1.5-.1.5-.8 2.5-2 1.5-.9.6-2.4-.2.5-.6.5.4.6-.4.8.4z" fill="#0b0707" stroke-width="none" opacity="1"></path><path id="SvgjsPath18424" d="m76.9 95.9 1.2-.4v.2l-1.2.3v-.1zm.9-1.8c-.5-.1-1-.1-1.1-.1l-.1-.2s.1 0 1.1.1l.1.2zm.5-2.9.1-.1.6.8-.1.1-.6-.8zm2.2-.7h.2v.9h-.2v-.9zm2.8 1.7.7-.6.1.1-.7.6-.1-.1zm.9 1.7.7-.1v.2l-.7.1v-.2zm-.2 1.7.1-.2.7.3-.1.2-.7-.3zm-1.5 1.6.2-.1.4.8-.2.1-.4-.8zm-3.2 1.5.4-1.2.2.1-.4 1.2-.2-.1zm-1.2-1.3.3-.4.1.1-.3.4-.1-.1z" fill="#000000" stroke-width="none" opacity="1"></path><path id="SvgjsPath18425" d="m80.6 92.1-1-.3-.7.7.2.9 1 .3.7-.7z" fill="#ffffff" stroke-width="none" opacity="1"></path><path id="SvgjsPath18426" d="m82.7 96.3-.5-.4-.6.4v.6l.6.4.5-.4z" fill="#ffffff" stroke-width="none" opacity="1"></path></g></g></g><g id="svga-group-eyesfront-left"><path id="SvgjsPath18349" d="M67.1 89.3v11.9l7.9 8.4h11.2l7.9-8.4V89.3l-7.9-8.4H75l-7.9 8.4zm3 5.7 7-3.8 9-.1 5.1 4.6-5.2 3.9-8.8.4c-1.3-.8-7.1-5-7.1-5z" fill="#8c5537" stroke-width="none" opacity="1" stroke="none"></path><path id="SvgjsPath18350" d="m91.7 96.1-1.2-.6-4.7-4.1H77l-7.2 4-1 .2 7.9-5 9.6-.1z" fill="#000000" stroke-width="none" opacity="1" stroke="none"></path><path id="SvgjsPath18351" d="m90.8 94-4-4.1-9.8-.1-8.1 3.6 8.1-3.1h9.7z" fill="#7d4425" stroke-width="none" opacity="1" stroke="none"></path></g></g></g><g id="svga-group-eyes-right-move" transform="matrix(1,0,0,1,-1,1)"><g id="svga-group-eyes-right" transform="matrix(1.0000001,0,0,1.0000001,-0.000011939999779997379,-0.000009515000542137386)"><g id="svga-group-eyesback-right"><path id="SvgjsPath18342" d="m108.8 95.7 5.1-4.6 9 .1 7 3.8s-5.8 4.3-7.2 4.9l-8.8-.4-5.1-3.8z" fill="#ffffff" stroke-width="none" opacity="1"></path></g><g id="svga-group-eyesiriswrapper-right" transform="matrix(1,0,0,1,0,0)"><g id="svga-group-eyesiriscontrol-right" transform="matrix(1,0,0,1,0,0)"><g id="svga-group-eyesiris-right"><path id="SvgjsPath18427" d="m117.4 99.5-2.6-1.9-1-3 1-3.1 2.6-1.9h3.2l2.6 1.9 1 3.1-1 3-2.6 1.9z" fill="#2a2121" stroke-width="none" opacity="1"></path><path id="SvgjsPath18428" d="m120.5 89.8 2.5 1.8.9 2.9-.9 2.9-2.5 1.8h-3.1l-2.5-1.8-.9-2.9.9-2.9 2.5-1.8h3.1m.2-.5h-3.4l-2.8 2-1.1 3.2 1.1 3.2 2.8 2h3.4l2.8-2 1.1-3.2-1.1-3.2-2.8-2z" fill="#0b0707" stroke-width="none" opacity="1"></path><path id="SvgjsPath18429" d="M119.8 91.9h-1.6l-1.4 1-.6 1.7.6 1.6 1.4 1h1.6l1.4-1 .6-1.6-.6-1.7z" fill="#000000" stroke-width="none" opacity="1"></path><path id="SvgjsPath18430" d="m120.4 99.2.2-.8.9.2.1-.9.8.2s-.2-.8-.1-.8.8.1.8.1l-.5-.8.8-.2-.4-.9.9-.3-.7-.5.5-.7-.7-.3.3-.9-.6-.2.2-.8h-.6l-.1-.5h-.4l-.1-.6 1.3.7.8 1.9.5 1.5-.1.5-.8 2.5-2 1.5-.9.6-2.4-.2.5-.6.5.4.6-.4.7.3z" fill="#0b0707" stroke-width="none" opacity="1"></path><path id="SvgjsPath18431" d="m114.9 95.9 1.2-.4v.2l-1.2.4v-.2zm.9-1.8c-.5-.1-1-.1-1.1-.1l-.1-.2s.1 0 1.1.1l.1.2zm.5-2.9.1-.1.6.8-.1.1-.6-.8zm2.2-.7h.2v.9h-.2v-.9zm2.7 1.7.7-.6.1.1-.7.6-.1-.1zm1 1.7.7-.1v.2l-.7.1v-.2zm-.2 1.7.1-.2.7.3-.1.2-.7-.3zm-1.5 1.6.2-.1.4.8-.2.1-.4-.8zm-3.2 1.5.4-1.2.2.1-.4 1.2-.2-.1zm-1.2-1.3.3-.4.1.1-.3.4-.1-.1z" fill="#000000" stroke-width="none" opacity="1"></path><path id="SvgjsPath18432" d="m118.6 92.1-1-.3-.7.7.2.9 1 .3.7-.7z" fill="#ffffff" stroke-width="none" opacity="1"></path><path id="SvgjsPath18433" d="m120.7 96.3-.5-.4-.6.4v.6l.6.4.5-.4z" fill="#ffffff" stroke-width="none" opacity="1"></path></g></g></g><g id="svga-group-eyesfront-right"><path id="SvgjsPath18352" d="M125 80.8h-11.2l-7.9 8.4v11.9l7.9 8.4H125l7.9-8.4V89.3l-7.9-8.5zm-2.3 19.1-8.8-.4-5.1-3.8 5.1-4.6 9 .1 7 3.8s-5.8 4.2-7.2 4.9z" fill="#8c5537" stroke-width="none" opacity="1" stroke="none"></path><path id="SvgjsPath18355" d="m108.3 96.1 1.2-.6 4.7-4.1h8.8l7.2 4 1 .2-7.9-5-9.6-.1z" fill="#000000" stroke-width="none" opacity="1" stroke="none"></path><path id="SvgjsPath18356" d="m109.2 94 4-4.1 9.8-.1 8.1 3.6-8.1-3.1h-9.7z" fill="#7d4425" stroke-width="none" opacity="1" stroke="none"></path></g></g></g><g id="svga-group-facehighlight-single"></g><g id="svga-group-eyebrows-left-move" transform="matrix(1,0,0,1,0,0)"><g id="svga-group-eyebrows-left-rotate" transform="matrix(0.9914448522613607,0.13052626143596008,-0.13052626143596008,0.9914448522613607,11.483980117481622,-9.373770194800315)"><g id="svga-group-eyebrows-left" transform="matrix(0.8999996000000001,0,0,0.8999996000000001,7.725030899999993,8.29192388411559)"><path id="SvgjsPath18260" d="m86.58 80.32 4.71.67.11 4.45s-5.28.13-5.59.03-16.13-1-16.13-1l-6.57-.44 6.74-2.93 16.73-.78z" fill="#2a232b" stroke-width="none" opacity="1"></path><path id="SvgjsPath18261" d="m69.67 84.48-6.57-.44 3.32-.24-1.31-.64.77-.33 2.71.82.61-.04 4.25.3-3.68-2.77.07-.03.55-.03 4.45 2.93 1.1.08 7.2.63-3.56-4.07.49-.02 4.37 4.21 2.36.21-3.65-4.56 1.33-.06 3.07 2.74.87 2.02 2.96.26s-5.28.13-5.59.03c-.3-.11-16.12-1-16.12-1z" fill="#1b141c" stroke-width="none" opacity="1"></path></g></g></g><g id="svga-group-eyebrows-right-move" transform="matrix(1,0,0,1,0,0)"><g id="svga-group-eyebrows-right-rotate" transform="matrix(0.9914448613738104,-0.13052619222005174,0.13052619222005174,0.9914448613738104,-9.772945916364193,16.731473338462493)"><g id="svga-group-eyebrows-right" transform="matrix(0.8999996000000001,0,0,0.8999996000000001,12.275049481471243,8.29192388411559)"><path id="SvgjsPath18262" d="m113.42 80.32-4.71.67-.11 4.45s5.28.13 5.59.03 16.13-1 16.13-1l6.57-.44-6.74-2.93-16.73-.78z" fill="#2a232b" stroke-width="none" opacity="1"></path><path id="SvgjsPath18263" d="m130.33 84.48 6.57-.44-3.32-.24 1.31-.64-.77-.33-2.71.82-.61-.04-4.25.3 3.68-2.77-.07-.03-.55-.03-4.45 2.93-1.1.08-7.2.63 3.56-4.07-.49-.02-4.37 4.21-2.36.21 3.65-4.56-1.33-.06-3.07 2.74-.87 2.02-2.96.26s5.28.13 5.59.03c.3-.11 16.12-1 16.12-1z" fill="#1b141c" stroke-width="none" opacity="1"></path></g></g></g><g id="svga-group-beardwrap"><g id="svga-group-beard-single-move" transform="matrix(1,0,0,1,0,0)"><g id="svga-group-beard-single"></g></g></g><g id="svga-group-mustache-single-move" transform="matrix(1,0,0,1,0,0)"><g id="svga-group-mustache-single"></g></g><g id="svga-group-nose-single-move" transform="matrix(1,0,0,1,0,4)"><g id="svga-group-nose-single" transform="matrix(0.8499994000000002,0,0,0.8499994000000002,15.006060161329628,15.335313149173714)"><path id="SvgjsPath18481" d="m96.12 99.91-.45 6.4-5.78 8.87 2.98 2.25 1.63-2.02 4.32 3.82h2.41l4.27-3.82 1.57 1.96 3.15-2.19-5.79-8.92-.56-6.46-3.82-1.63z" fill="#8c5537" stroke-width="none" opacity="1" transform="translate(0 1)" stroke="none"></path><path id="SvgjsPath18482" d="m104.86 106.44-1.95-15.67 1.1 14.55-.86-.22 6.58 10.06-2.34 1.73-1.28-1.51.28-1.34-5.15 4.47h-2.4l-5.15-4.47.29 1.34-1.29 1.51-2.34-1.73 6.59-10.06-.86.22 1.33-22.81-2.19 23.93-5.82 8.83 3.81 2.79 1.44-2.01 4.19 3.91h2.4l4.2-3.91 1.43 2.01 3.81-2.79z" fill="#6d3415" stroke-width="none" opacity="1" transform="translate(0 1)" stroke="none"></path><path id="SvgjsPath18483" d="m96.15 113.17 2.37 1.46 3.1.06 2.55-1.16-.3-1.76-3.59-.6-3.94.66z" fill="#945e41" stroke-width="none" opacity="1" transform="translate(0 1)" stroke="none"></path></g></g><g id="svga-group-hair-front"><path id="SvgjsPath18520" d="m137.1 88.7 5.4 5.4 1.3-7.1-1-16.6-3.4-12.5 1.4-10.8-7.4-10.5-8.2-9.4-16.2-3.4-16.9-2.7-16.9 10.8-11.8 13.5-8.1 10.8-2 17.3 1.1 14.6 4.9 4.1.7 3.6 7.1 2.7-2.3 5.7 3 3.1-.3-4.1 4.3-7.1-7.7-3.7 2-13.2L81 70.8l1-5.4-6.1-10.2 6.4-2 3.8 3h9.1l2-.3 5.7.7 5.8-1.7 6.7 3.4h7.2l3.3 2 4.8.3 5.7 10.5z" fill="#2b2323" stroke-width="none" opacity="1" stroke="none"></path><path id="SvgjsPath18521" d="m111.1 31.2-25 3-13.6 16 3.4 5.1 6.4-2 3.7 3h9.1l2-.3 5.8.7 5.7-1.7 6.8 3.4h7.1l4.7-11.5-16.1-15.7zm19.6 29.4 8.8-2.7-3 13.2-5.8-10.5zM64.6 74.4l11.6-5.2.2-4.1-11.1-10.3-.7-7 10.7-15.9-11.9 13.5-.2.2c-.5 3.1-1.2 7.5-1.2 7.5l5.7 7.2 2.1 8-7.2 4.3-2.7 7.3-3.8-6.1-2.2-7.3-.8 6.9L54.2 88l4.9 4.1L61.5 81l3.1-6.6z" fill="#231b1b" stroke-width="none" opacity="1" stroke="none"></path><path id="SvgjsPath18522" d="M108.7 54.9s2.5-12.7 2.1-13.5c-.4-.9-7.2-7.2-7.2-7.2l-5.3-1.4-11.7 1.4c-.5.4-1.1.8-1.7 1.3L72.5 50.2l3.4 5.1 6.4-2 3.7 3h9.1l2-.3 5.8.7 5.8-1.8z" fill="#1c1414" stroke-width="none" opacity="1" stroke="none"></path><path id="SvgjsPath18523" d="M85.8 40.3s-3.8 1.2-6.9 2.2l-6.5 7.6 3.4 5.1 6.4-2 3.7 3H95l2-.3c-.1-.5-1.9-8.2-1.9-8.2l-9.3-7.4z" fill="#0c0808" stroke-width="none" opacity="1" stroke="none"></path><path id="SvgjsPath18524" d="m101.8 23.9-20.7 7-16.5 16.9.7 7 11 10.3-.3 3.5-11.4 5.8L59 91.1l1 4.7.2-4 4.6-14.9 13.4-6.7 1.5-4.5-9.3-9.9-1.2-8.5 13.4-15.4z" fill="#332c2c" stroke-width="none" opacity="1" stroke="none"></path></g><g id="svga-group-glasses-single-move" transform="matrix(1,0,0,1,0,0)"><g id="svga-group-glasses-single"></g></g></g></g></g><rect id="svga-credit-rect" width="200" height="15" x="0" y="185" fill="#ecf0f1" opacity="0.5" style="display: none;"></rect><text id="svga-credit-text" font-family="Avenir Next, Roboto, Helvetica, Arial, sans-serif" font-size="10px" text-anchor="start" font-weight="400" size="10px" anchor="start" weight="400" fill="#333333" x="33.40447998046875" y="182.60824704170227" style="display: none;"><tspan id="SvgjsTspan18254" dy="13" x="33.40447998046875">Created on AvatarMaker.com</tspan></text></g><defs id="SvgjsDefs18201"></defs></svg>